<svg width="83" height="39" viewBox="0 0 83 39" fill="none" xmlns="http://www.w3.org/2000/svg">
<g filter="url(#filter0_d)">
<path d="M11.208 7.32C11.224 7.192 11.272 7.104 11.352 7.056C11.448 6.992 11.536 6.96 11.616 6.96C12.704 6.96 13.72 6.928 14.664 6.864C15.624 6.784 16.376 6.744 16.92 6.744C18.28 6.744 19.416 6.88 20.328 7.152C21.256 7.424 22 7.848 22.56 8.424C23.136 9 23.544 9.744 23.784 10.656C24.024 11.568 24.144 12.664 24.144 13.944C24.144 15.24 24.008 16.512 23.736 17.76C23.48 18.992 23.024 20.088 22.368 21.048C21.712 22.008 20.824 22.784 19.704 23.376C18.6 23.952 17.2 24.24 15.504 24.24C14.72 24.24 14 24.224 13.344 24.192C12.704 24.16 12.152 24.064 11.688 23.904C11.224 23.744 10.864 23.504 10.608 23.184C10.352 22.864 10.224 22.424 10.224 21.864C10.224 21.656 10.232 21.344 10.248 20.928C10.28 20.512 10.312 20.016 10.344 19.44C10.392 18.864 10.44 18.232 10.488 17.544C10.552 16.84 10.616 16.104 10.68 15.336C10.808 13.752 10.904 12.488 10.968 11.544C11.048 10.6 11.096 9.864 11.112 9.336C11.144 8.792 11.16 8.384 11.16 8.112C11.176 7.84 11.192 7.576 11.208 7.32ZM15.672 20.448C16.568 20.448 17.28 20.256 17.808 19.872C18.352 19.488 18.768 19 19.056 18.408C19.344 17.816 19.536 17.168 19.632 16.464C19.728 15.76 19.776 15.096 19.776 14.472C19.776 13.8 19.728 13.216 19.632 12.72C19.552 12.208 19.4 11.784 19.176 11.448C18.968 11.112 18.672 10.864 18.288 10.704C17.904 10.528 17.424 10.44 16.848 10.44C16.672 10.44 16.448 10.448 16.176 10.464C15.904 10.48 15.576 10.504 15.192 10.536C15.16 11.128 15.12 11.832 15.072 12.648C15.024 13.448 14.968 14.296 14.904 15.192C14.856 16.072 14.8 16.968 14.736 17.88C14.672 18.776 14.608 19.608 14.544 20.376C14.784 20.408 15 20.432 15.192 20.448C15.384 20.448 15.544 20.448 15.672 20.448ZM31.5124 24.24C30.8084 24.24 30.1044 24.152 29.4004 23.976C28.7124 23.8 28.0884 23.496 27.5284 23.064C26.9844 22.632 26.5364 22.056 26.1844 21.336C25.8324 20.616 25.6564 19.712 25.6564 18.624C25.6564 18.224 25.6884 17.744 25.7524 17.184C25.8164 16.624 25.9364 16.048 26.1124 15.456C26.3044 14.864 26.5604 14.28 26.8804 13.704C27.2164 13.112 27.6484 12.584 28.1764 12.12C28.7044 11.656 29.3444 11.28 30.0964 10.992C30.8484 10.704 31.7444 10.56 32.7844 10.56C33.6164 10.56 34.3204 10.656 34.8964 10.848C35.4724 11.04 35.9364 11.304 36.2884 11.64C36.6404 11.96 36.8964 12.336 37.0564 12.768C37.2164 13.2 37.2964 13.664 37.2964 14.16C37.2964 14.896 37.1444 15.52 36.8404 16.032C36.5524 16.544 36.1684 16.976 35.6884 17.328C35.2244 17.664 34.7044 17.928 34.1284 18.12C33.5524 18.312 32.9844 18.464 32.4244 18.576C31.8644 18.672 31.3444 18.736 30.8644 18.768C30.4004 18.784 30.0404 18.792 29.7844 18.792C29.7844 19.096 29.8244 19.4 29.9044 19.704C30.0004 19.992 30.1364 20.248 30.3124 20.472C30.4884 20.696 30.7204 20.88 31.0084 21.024C31.2964 21.168 31.6484 21.24 32.0644 21.24C32.4804 21.24 32.8004 21.176 33.0244 21.048C33.2644 20.904 33.4564 20.752 33.6004 20.592C33.7444 20.416 33.8644 20.264 33.9604 20.136C34.0724 19.992 34.2164 19.92 34.3924 19.92C34.4724 19.92 34.6084 19.944 34.8004 19.992C35.0084 20.024 35.2164 20.104 35.4244 20.232C35.6324 20.36 35.8164 20.536 35.9764 20.76C36.1364 20.984 36.2164 21.272 36.2164 21.624C36.2164 22.088 36.0724 22.488 35.7844 22.824C35.4964 23.16 35.1204 23.432 34.6564 23.64C34.2084 23.848 33.7044 24 33.1444 24.096C32.5844 24.192 32.0404 24.24 31.5124 24.24ZM31.9684 13.752C31.6164 13.752 31.3124 13.856 31.0564 14.064C30.8164 14.256 30.6084 14.504 30.4324 14.808C30.2724 15.112 30.1444 15.448 30.0484 15.816C29.9684 16.184 29.9044 16.536 29.8564 16.872C30.8484 16.856 31.6484 16.688 32.2564 16.368C32.8804 16.048 33.1924 15.592 33.1924 15C33.1924 14.68 33.0884 14.392 32.8804 14.136C32.6884 13.88 32.3844 13.752 31.9684 13.752ZM42.8938 19.68C42.8458 20.416 42.7898 21.12 42.7258 21.792C42.6618 22.448 42.6138 23.024 42.5818 23.52C42.5658 23.712 42.5258 23.84 42.4618 23.904C42.3978 23.968 42.2618 24 42.0538 24H41.1898C40.6938 24 40.2858 23.952 39.9658 23.856C39.6618 23.744 39.4138 23.592 39.2218 23.4C39.0458 23.208 38.9178 22.976 38.8378 22.704C38.7738 22.416 38.7418 22.088 38.7418 21.72C38.7418 21.48 38.7498 21.144 38.7658 20.712C38.7978 20.264 38.8458 19.656 38.9098 18.888C38.9738 18.104 39.0458 17.12 39.1258 15.936C39.2218 14.736 39.3338 13.256 39.4618 11.496C39.4778 11.144 39.5178 10.936 39.5818 10.872C39.6298 10.824 39.7578 10.8 39.9658 10.8H40.9018C41.3818 10.8 41.7738 10.856 42.0778 10.968C42.3818 11.08 42.6298 11.224 42.8218 11.4C43.0138 11.576 43.1498 11.784 43.2298 12.024C43.3098 12.264 43.3578 12.512 43.3738 12.768C43.8378 11.904 44.3658 11.32 44.9578 11.016C45.5498 10.712 46.2458 10.56 47.0458 10.56C47.4778 10.56 47.8938 10.6 48.2938 10.68C48.6938 10.76 49.0538 10.896 49.3738 11.088C49.6938 11.28 49.9658 11.536 50.1898 11.856C50.4138 12.16 50.5738 12.552 50.6698 13.032C51.1658 12.104 51.7098 11.464 52.3018 11.112C52.8938 10.744 53.6378 10.56 54.5338 10.56C55.0298 10.56 55.5018 10.616 55.9498 10.728C56.4138 10.824 56.8138 11 57.1498 11.256C57.4858 11.512 57.7498 11.864 57.9418 12.312C58.1498 12.744 58.2538 13.288 58.2538 13.944C58.2538 14.44 58.2298 15.048 58.1818 15.768C58.1338 16.488 58.0778 17.272 58.0138 18.12C57.9498 18.952 57.8778 19.816 57.7978 20.712C57.7178 21.592 57.6538 22.44 57.6058 23.256C57.5898 23.432 57.5738 23.568 57.5578 23.664C57.5418 23.76 57.5098 23.832 57.4618 23.88C57.4298 23.928 57.3738 23.96 57.2938 23.976C57.2138 23.992 57.1018 24 56.9578 24L56.1898 24C55.6778 24 55.2618 23.952 54.9418 23.856C54.6218 23.76 54.3738 23.624 54.1978 23.448C54.0218 23.272 53.8938 23.056 53.8138 22.8C53.7498 22.528 53.7178 22.224 53.7178 21.888C53.7178 21.68 53.7258 21.384 53.7418 21C53.7738 20.616 53.8058 20.2 53.8378 19.752C53.8858 19.304 53.9258 18.84 53.9578 18.36C54.0058 17.88 54.0458 17.44 54.0778 17.04C54.1258 16.624 54.1578 16.264 54.1738 15.96C54.2058 15.656 54.2218 15.456 54.2218 15.36C54.2218 14.944 54.1338 14.576 53.9578 14.256C53.7978 13.936 53.4778 13.776 52.9978 13.776C52.5818 13.776 52.2218 13.912 51.9178 14.184C51.6138 14.456 51.3578 14.832 51.1498 15.312C50.9418 15.792 50.7738 16.36 50.6458 17.016C50.5178 17.672 50.4298 18.384 50.3818 19.152C50.3498 19.648 50.3098 20.216 50.2618 20.856C50.2138 21.496 50.1578 22.296 50.0938 23.256C50.0778 23.432 50.0618 23.568 50.0458 23.664C50.0298 23.76 49.9978 23.832 49.9498 23.88C49.9178 23.928 49.8618 23.96 49.7818 23.976C49.7018 23.992 49.5898 24 49.4458 24H48.6778C48.1658 24 47.7498 23.952 47.4298 23.856C47.1098 23.76 46.8618 23.624 46.6858 23.448C46.5098 23.272 46.3818 23.056 46.3018 22.8C46.2378 22.528 46.2058 22.224 46.2058 21.888C46.2058 21.568 46.2298 21.104 46.2778 20.496C46.3418 19.872 46.3978 19.232 46.4458 18.576C46.5098 17.904 46.5658 17.272 46.6138 16.68C46.6778 16.072 46.7098 15.632 46.7098 15.36C46.7098 14.944 46.6218 14.576 46.4458 14.256C46.2858 13.936 45.9658 13.776 45.4858 13.776C45.0538 13.776 44.6858 13.936 44.3818 14.256C44.0778 14.576 43.8218 15.008 43.6138 15.552C43.4218 16.08 43.2618 16.704 43.1338 17.424C43.0218 18.144 42.9418 18.896 42.8938 19.68ZM65.7741 24.24C64.6701 24.24 63.7501 24.088 63.0141 23.784C62.2941 23.464 61.7181 23.032 61.2861 22.488C60.8541 21.944 60.5501 21.312 60.3741 20.592C60.1981 19.856 60.1101 19.072 60.1101 18.24C60.1101 17.28 60.2221 16.344 60.4461 15.432C60.6861 14.504 61.0861 13.68 61.6461 12.96C62.2061 12.24 62.9421 11.664 63.8541 11.232C64.7821 10.784 65.9341 10.56 67.3101 10.56C69.3261 10.56 70.7661 11.056 71.6301 12.048C72.5101 13.024 72.9501 14.4 72.9501 16.176C72.9501 16.672 72.9101 17.224 72.8301 17.832C72.7661 18.424 72.6301 19.016 72.4221 19.608C72.2301 20.2 71.9581 20.776 71.6061 21.336C71.2701 21.896 70.8381 22.392 70.3101 22.824C69.7821 23.256 69.1421 23.6 68.3901 23.856C67.6541 24.112 66.7821 24.24 65.7741 24.24ZM66.9021 13.752C66.2941 13.752 65.8061 13.912 65.4381 14.232C65.0861 14.536 64.8141 14.912 64.6221 15.36C64.4461 15.792 64.3261 16.256 64.2621 16.752C64.2141 17.232 64.1901 17.64 64.1901 17.976C64.1901 19.032 64.3581 19.808 64.6941 20.304C65.0301 20.8 65.5101 21.048 66.1341 21.048C66.6941 21.048 67.1501 20.872 67.5021 20.52C67.8701 20.168 68.1501 19.744 68.3421 19.248C68.5501 18.752 68.6861 18.232 68.7501 17.688C68.8301 17.144 68.8701 16.688 68.8701 16.32C68.8701 15.52 68.7181 14.896 68.4141 14.448C68.1261 13.984 67.6221 13.752 66.9021 13.752Z" fill="white"/>
</g>
<defs>
<filter id="filter0_d" x="0.223999" y="0.744003" width="82.7261" height="37.496" filterUnits="userSpaceOnUse" color-interpolation-filters="sRGB">
<feFlood flood-opacity="0" result="BackgroundImageFix"/>
<feColorMatrix in="SourceAlpha" type="matrix" values="0 0 0 0 0 0 0 0 0 0 0 0 0 0 0 0 0 0 127 0"/>
<feOffset dy="4"/>
<feGaussianBlur stdDeviation="5"/>
<feColorMatrix type="matrix" values="0 0 0 0 0 0 0 0 0 0 0 0 0 0 0 0 0 0 0.25 0"/>
<feBlend mode="normal" in2="BackgroundImageFix" result="effect1_dropShadow"/>
<feBlend mode="normal" in="SourceGraphic" in2="effect1_dropShadow" result="shape"/>
</filter>
</defs>
</svg>
