<svg width="199" height="57" viewBox="0 0 199 57" fill="none" xmlns="http://www.w3.org/2000/svg">
<g filter="url(#filter0_d)">
<path d="M25.4027 34.992C26.7147 34.992 27.8187 34.8 28.7147 34.416C29.6427 34.032 30.4267 33.6 31.0667 33.12C31.7067 32.64 32.2667 32.208 32.7467 31.824C33.2587 31.44 33.7707 31.248 34.2827 31.248C34.9227 31.248 35.2427 31.728 35.2427 32.688C35.2427 33.2 35.1787 33.824 35.0507 34.56C34.9227 35.264 34.7467 36.064 34.5227 36.96C34.3947 37.504 34.0747 38.096 33.5627 38.736C33.0827 39.376 32.4107 39.984 31.5467 40.56C30.6827 41.104 29.6107 41.568 28.3307 41.952C27.0827 42.304 25.6427 42.48 24.0107 42.48C22.3787 42.48 20.7467 42.24 19.1147 41.76C17.4827 41.28 16.0267 40.464 14.7467 39.312C13.4667 38.16 12.4267 36.608 11.6267 34.656C10.8267 32.704 10.4267 30.256 10.4267 27.312C10.4267 26.256 10.4907 25.04 10.6187 23.664C10.7787 22.256 11.0667 20.816 11.4827 19.344C11.8987 17.872 12.4747 16.432 13.2107 15.024C13.9787 13.584 14.9547 12.304 16.1387 11.184C17.3227 10.064 18.7627 9.168 20.4587 8.496C22.1867 7.792 24.2347 7.44 26.6027 7.44C28.4907 7.44 30.1227 7.664 31.4987 8.112C32.9067 8.56 34.0587 9.184 34.9547 9.984C35.8827 10.752 36.5547 11.664 36.9707 12.72C37.4187 13.776 37.6427 14.896 37.6427 16.08C37.6427 18.128 37.0347 19.632 35.8187 20.592C34.6347 21.52 32.9387 21.984 30.7307 21.984C30.0267 21.984 29.5787 21.936 29.3867 21.84C29.2267 21.712 29.1467 21.472 29.1467 21.12C29.1147 20.032 29.0827 19.088 29.0507 18.288C29.0187 17.488 28.9067 16.832 28.7147 16.32C28.5227 15.776 28.2187 15.392 27.8027 15.168C27.4187 14.912 26.8747 14.784 26.1707 14.784C25.1467 14.784 24.2667 15.008 23.5307 15.456C22.8267 15.872 22.2187 16.432 21.7067 17.136C21.2267 17.808 20.8267 18.576 20.5067 19.44C20.2187 20.304 19.9787 21.184 19.7867 22.08C19.6267 22.976 19.5147 23.84 19.4507 24.672C19.4187 25.504 19.4027 26.224 19.4027 26.832C19.4027 29.776 19.8827 31.872 20.8427 33.12C21.8347 34.368 23.3547 34.992 25.4027 34.992ZM56.0837 36.048C56.1797 34.992 56.2757 33.888 56.3717 32.736C56.4997 31.584 56.5957 30.48 56.6597 29.424C56.7557 28.368 56.8357 27.424 56.8997 26.592C56.9637 25.76 56.9957 25.152 56.9957 24.768C56.9957 23.936 56.7877 23.2 56.3717 22.56C55.9877 21.888 55.2197 21.552 54.0677 21.552C52.5317 21.552 51.2837 22.272 50.3237 23.712C49.3957 25.152 48.8517 27.072 48.6917 29.472C48.6277 30.144 48.5477 31.088 48.4517 32.304C48.3557 33.488 48.2597 34.704 48.1637 35.952C48.0677 37.168 47.9717 38.272 47.8757 39.264C47.8117 40.224 47.7797 40.816 47.7797 41.04C47.7797 41.424 47.6997 41.68 47.5397 41.808C47.4117 41.936 47.1397 42 46.7237 42L44.9957 42C44.0037 42 43.1877 41.904 42.5477 41.712C41.9397 41.488 41.4437 41.184 41.0597 40.8C40.7077 40.416 40.4517 39.952 40.2917 39.408C40.1637 38.832 40.0997 38.176 40.0997 37.44C40.0997 36.736 40.1477 35.76 40.2437 34.512C40.3717 33.232 40.5317 31.488 40.7237 29.28C40.9157 27.04 41.1397 24.192 41.3957 20.736C41.6517 17.28 41.9237 12.992 42.2117 7.872C42.2437 7.168 42.3237 6.752 42.4517 6.624C42.5477 6.528 42.8037 6.48 43.2197 6.48L45.0917 6.48C46.0517 6.48 46.8517 6.592 47.4917 6.816C48.1317 7.04 48.6437 7.344 49.0277 7.728C49.4117 8.112 49.6837 8.56 49.8437 9.072C50.0037 9.552 50.0837 10.064 50.0837 10.608C50.0837 11.184 50.0197 12.256 49.8917 13.824C49.7957 15.392 49.6677 17.232 49.5077 19.344C50.4677 17.744 51.5237 16.64 52.6757 16.032C53.8597 15.424 55.3477 15.12 57.1397 15.12C58.4837 15.12 59.6517 15.264 60.6437 15.552C61.6357 15.84 62.4517 16.336 63.0917 17.04C63.7637 17.712 64.2597 18.608 64.5797 19.728C64.8997 20.816 65.0597 22.176 65.0597 23.808C65.0597 24.32 65.0117 25.2 64.9157 26.448C64.8197 27.696 64.6917 29.12 64.5317 30.72C64.4037 32.32 64.2597 34 64.0997 35.76C63.9717 37.488 63.8597 39.072 63.7637 40.512C63.7317 40.864 63.6997 41.136 63.6677 41.328C63.6357 41.52 63.5717 41.664 63.4757 41.76C63.4117 41.856 63.2997 41.92 63.1397 41.952C62.9797 41.984 62.7557 42 62.4677 42L60.9317 42C59.9077 42 59.0757 41.904 58.4357 41.712C57.7957 41.52 57.2997 41.248 56.9477 40.896C56.5957 40.544 56.3397 40.112 56.1797 39.6C56.0517 39.056 55.9877 38.448 55.9877 37.776C55.9877 37.456 55.9877 37.152 55.9877 36.864C56.0197 36.576 56.0517 36.304 56.0837 36.048ZM67.9108 36.096C67.9108 33.216 69.2068 30.96 71.7988 29.328C74.3908 27.696 78.2148 26.816 83.2708 26.688C83.3028 26.336 83.3188 26.048 83.3188 25.824C83.3508 25.568 83.3668 25.264 83.3668 24.912C83.3668 23.888 83.1748 23.072 82.7908 22.464C82.4068 21.856 81.6068 21.552 80.3908 21.552C79.7188 21.552 79.1748 21.648 78.7588 21.84C78.3428 22.032 78.0068 22.304 77.7508 22.656C77.4948 22.976 77.2868 23.376 77.1268 23.856C76.9668 24.336 76.8228 24.864 76.6948 25.44C76.6308 25.728 76.4868 25.92 76.2628 26.016C76.0388 26.08 75.6868 26.112 75.2068 26.112C71.9428 26.112 70.3108 24.88 70.3108 22.416C70.3108 21.424 70.5348 20.48 70.9828 19.584C71.4628 18.688 72.1508 17.92 73.0468 17.28C73.9748 16.608 75.1268 16.08 76.5028 15.696C77.8788 15.312 79.4788 15.12 81.3028 15.12C84.8548 15.12 87.4308 15.856 89.0308 17.328C90.6308 18.8 91.4308 20.88 91.4308 23.568C91.4308 23.92 91.3828 24.56 91.2868 25.488C91.2228 26.384 91.1268 27.344 90.9988 28.368C90.9028 29.36 90.8068 30.304 90.7108 31.2C90.6468 32.096 90.6148 32.72 90.6148 33.072C90.6148 33.872 90.7588 34.448 91.0468 34.8C91.3348 35.12 91.6548 35.344 92.0068 35.472C92.3908 35.6 92.7268 35.696 93.0148 35.76C93.3028 35.824 93.4468 35.984 93.4468 36.24C93.4468 36.944 93.3508 37.664 93.1588 38.4C92.9668 39.136 92.6468 39.808 92.1988 40.416C91.7828 41.024 91.1908 41.52 90.4228 41.904C89.6868 42.288 88.7748 42.48 87.6868 42.48C86.1508 42.48 84.9988 42.112 84.2308 41.376C83.4628 40.64 82.9508 39.616 82.6948 38.304C81.9268 39.424 80.9188 40.4 79.6708 41.232C78.4548 42.064 76.8548 42.48 74.8708 42.48C73.9108 42.48 72.9988 42.368 72.1348 42.144C71.3028 41.92 70.5668 41.552 69.9268 41.04C69.3188 40.528 68.8228 39.872 68.4388 39.072C68.0868 38.24 67.9108 37.248 67.9108 36.096ZM82.8388 30.624C82.0068 30.624 81.1908 30.688 80.3908 30.816C79.5908 30.944 78.8708 31.152 78.2308 31.44C77.6228 31.696 77.1268 32.048 76.7428 32.496C76.3588 32.944 76.1668 33.488 76.1668 34.128C76.1668 34.864 76.3908 35.376 76.8388 35.664C77.3188 35.952 77.8308 36.096 78.3748 36.096C78.8868 36.096 79.3988 35.984 79.9108 35.76C80.4228 35.536 80.8708 35.2 81.2548 34.752C81.6708 34.272 82.0228 33.696 82.3108 33.024C82.5988 32.352 82.7748 31.552 82.8388 30.624ZM106.718 22.08C106.622 23.296 106.51 24.496 106.382 25.68C106.286 26.864 106.19 27.984 106.094 29.04C105.998 30.096 105.918 31.04 105.854 31.872C105.822 32.704 105.806 33.344 105.806 33.792C105.806 34.624 105.902 35.184 106.094 35.472C106.286 35.728 106.606 35.856 107.054 35.856C107.406 35.856 107.71 35.792 107.966 35.664C108.222 35.536 108.462 35.392 108.686 35.232C108.91 35.072 109.102 34.928 109.262 34.8C109.454 34.672 109.662 34.608 109.886 34.608C110.11 34.608 110.318 34.736 110.51 34.992C110.702 35.248 110.798 35.84 110.798 36.768C110.798 38.528 110.318 39.92 109.358 40.944C108.398 41.968 106.75 42.48 104.414 42.48C102.11 42.48 100.398 41.952 99.2777 40.896C98.1897 39.808 97.6457 38.16 97.6457 35.952C97.6457 35.472 97.6617 34.912 97.6937 34.272C97.7577 33.6 97.8377 32.736 97.9337 31.68C98.0297 30.624 98.1417 29.328 98.2697 27.792C98.4297 26.256 98.5897 24.352 98.7497 22.08L96.2057 22.08C95.9497 22.08 95.7897 22.032 95.7257 21.936C95.6937 21.808 95.6777 21.632 95.6777 21.408L95.8217 18.96C95.8537 18.544 95.9017 18.144 95.9657 17.76C96.0617 17.344 96.2217 16.976 96.4457 16.656C96.7017 16.336 97.0537 16.08 97.5017 15.888C97.9497 15.696 98.5417 15.6 99.2777 15.6C99.5017 15.024 99.7577 14.336 100.046 13.536C100.334 12.736 100.622 11.968 100.91 11.232C101.198 10.464 101.47 9.824 101.726 9.312C102.014 8.8 102.27 8.544 102.494 8.544L103.886 8.544C105.23 8.544 106.158 8.96 106.67 9.792C107.182 10.624 107.438 11.616 107.438 12.768C107.438 13.408 107.39 14.352 107.294 15.6L112.334 15.6C112.846 15.6 113.102 15.824 113.102 16.272L112.91 18.864C112.846 19.824 112.574 20.608 112.094 21.216C111.646 21.792 110.702 22.08 109.262 22.08L106.718 22.08ZM130.45 34.992C131.762 34.992 132.866 34.8 133.762 34.416C134.69 34.032 135.474 33.6 136.114 33.12C136.754 32.64 137.314 32.208 137.794 31.824C138.306 31.44 138.818 31.248 139.33 31.248C139.97 31.248 140.29 31.728 140.29 32.688C140.29 33.2 140.226 33.824 140.098 34.56C139.97 35.264 139.794 36.064 139.57 36.96C139.442 37.504 139.122 38.096 138.61 38.736C138.13 39.376 137.458 39.984 136.594 40.56C135.73 41.104 134.658 41.568 133.378 41.952C132.13 42.304 130.69 42.48 129.058 42.48C127.426 42.48 125.794 42.24 124.162 41.76C122.53 41.28 121.074 40.464 119.794 39.312C118.514 38.16 117.474 36.608 116.674 34.656C115.874 32.704 115.474 30.256 115.474 27.312C115.474 26.256 115.538 25.04 115.666 23.664C115.826 22.256 116.114 20.816 116.53 19.344C116.946 17.872 117.522 16.432 118.258 15.024C119.026 13.584 120.002 12.304 121.186 11.184C122.37 10.064 123.81 9.168 125.506 8.496C127.234 7.792 129.282 7.44 131.65 7.44C133.538 7.44 135.17 7.664 136.546 8.112C137.954 8.56 139.106 9.184 140.002 9.984C140.93 10.752 141.602 11.664 142.018 12.72C142.466 13.776 142.69 14.896 142.69 16.08C142.69 18.128 142.082 19.632 140.866 20.592C139.682 21.52 137.986 21.984 135.778 21.984C135.074 21.984 134.626 21.936 134.434 21.84C134.274 21.712 134.194 21.472 134.194 21.12C134.162 20.032 134.13 19.088 134.098 18.288C134.066 17.488 133.954 16.832 133.762 16.32C133.57 15.776 133.266 15.392 132.85 15.168C132.466 14.912 131.922 14.784 131.218 14.784C130.194 14.784 129.314 15.008 128.578 15.456C127.874 15.872 127.266 16.432 126.754 17.136C126.274 17.808 125.874 18.576 125.554 19.44C125.266 20.304 125.026 21.184 124.834 22.08C124.674 22.976 124.562 23.84 124.498 24.672C124.466 25.504 124.45 26.224 124.45 26.832C124.45 29.776 124.93 31.872 125.89 33.12C126.882 34.368 128.402 34.992 130.45 34.992ZM143.755 36.096C143.755 33.216 145.051 30.96 147.643 29.328C150.235 27.696 154.059 26.816 159.115 26.688C159.147 26.336 159.163 26.048 159.163 25.824C159.195 25.568 159.211 25.264 159.211 24.912C159.211 23.888 159.019 23.072 158.635 22.464C158.251 21.856 157.451 21.552 156.235 21.552C155.563 21.552 155.019 21.648 154.603 21.84C154.187 22.032 153.851 22.304 153.595 22.656C153.339 22.976 153.131 23.376 152.971 23.856C152.811 24.336 152.667 24.864 152.539 25.44C152.475 25.728 152.331 25.92 152.107 26.016C151.883 26.08 151.531 26.112 151.051 26.112C147.787 26.112 146.155 24.88 146.155 22.416C146.155 21.424 146.379 20.48 146.827 19.584C147.307 18.688 147.995 17.92 148.891 17.28C149.819 16.608 150.971 16.08 152.347 15.696C153.723 15.312 155.323 15.12 157.147 15.12C160.699 15.12 163.275 15.856 164.875 17.328C166.475 18.8 167.275 20.88 167.275 23.568C167.275 23.92 167.227 24.56 167.131 25.488C167.067 26.384 166.971 27.344 166.843 28.368C166.747 29.36 166.651 30.304 166.555 31.2C166.491 32.096 166.459 32.72 166.459 33.072C166.459 33.872 166.603 34.448 166.891 34.8C167.179 35.12 167.499 35.344 167.851 35.472C168.235 35.6 168.571 35.696 168.859 35.76C169.147 35.824 169.291 35.984 169.291 36.24C169.291 36.944 169.195 37.664 169.003 38.4C168.811 39.136 168.491 39.808 168.043 40.416C167.627 41.024 167.035 41.52 166.267 41.904C165.531 42.288 164.619 42.48 163.531 42.48C161.995 42.48 160.843 42.112 160.075 41.376C159.307 40.64 158.795 39.616 158.539 38.304C157.771 39.424 156.763 40.4 155.515 41.232C154.299 42.064 152.699 42.48 150.715 42.48C149.755 42.48 148.843 42.368 147.979 42.144C147.147 41.92 146.411 41.552 145.771 41.04C145.163 40.528 144.667 39.872 144.283 39.072C143.931 38.24 143.755 37.248 143.755 36.096ZM158.683 30.624C157.851 30.624 157.035 30.688 156.235 30.816C155.435 30.944 154.715 31.152 154.075 31.44C153.467 31.696 152.971 32.048 152.587 32.496C152.203 32.944 152.011 33.488 152.011 34.128C152.011 34.864 152.235 35.376 152.683 35.664C153.163 35.952 153.675 36.096 154.219 36.096C154.731 36.096 155.243 35.984 155.755 35.76C156.267 35.536 156.715 35.2 157.099 34.752C157.515 34.272 157.867 33.696 158.155 33.024C158.443 32.352 158.619 31.552 158.683 30.624ZM182.561 22.08C182.465 23.296 182.353 24.496 182.225 25.68C182.129 26.864 182.033 27.984 181.937 29.04C181.841 30.096 181.761 31.04 181.697 31.872C181.665 32.704 181.649 33.344 181.649 33.792C181.649 34.624 181.745 35.184 181.937 35.472C182.129 35.728 182.449 35.856 182.897 35.856C183.249 35.856 183.553 35.792 183.809 35.664C184.065 35.536 184.305 35.392 184.529 35.232C184.753 35.072 184.945 34.928 185.105 34.8C185.297 34.672 185.505 34.608 185.729 34.608C185.953 34.608 186.161 34.736 186.353 34.992C186.545 35.248 186.641 35.84 186.641 36.768C186.641 38.528 186.161 39.92 185.201 40.944C184.241 41.968 182.593 42.48 180.257 42.48C177.953 42.48 176.241 41.952 175.121 40.896C174.033 39.808 173.489 38.16 173.489 35.952C173.489 35.472 173.505 34.912 173.537 34.272C173.601 33.6 173.681 32.736 173.777 31.68C173.873 30.624 173.985 29.328 174.113 27.792C174.273 26.256 174.433 24.352 174.593 22.08L172.049 22.08C171.793 22.08 171.633 22.032 171.569 21.936C171.537 21.808 171.521 21.632 171.521 21.408L171.665 18.96C171.697 18.544 171.745 18.144 171.809 17.76C171.905 17.344 172.065 16.976 172.289 16.656C172.545 16.336 172.897 16.08 173.345 15.888C173.793 15.696 174.385 15.6 175.121 15.6C175.345 15.024 175.601 14.336 175.889 13.536C176.177 12.736 176.465 11.968 176.753 11.232C177.041 10.464 177.313 9.824 177.569 9.312C177.857 8.8 178.113 8.544 178.337 8.544L179.729 8.544C181.073 8.544 182.001 8.96 182.513 9.792C183.025 10.624 183.281 11.616 183.281 12.768C183.281 13.408 183.233 14.352 183.137 15.6L188.177 15.6C188.689 15.6 188.945 15.824 188.945 16.272L188.753 18.864C188.689 19.824 188.417 20.608 187.937 21.216C187.489 21.792 186.545 22.08 185.105 22.08L182.561 22.08Z" fill="white"/>
</g>
<defs>
<filter id="filter0_d" x="0.426689" y="0.479996" width="198.519" height="56" filterUnits="userSpaceOnUse" color-interpolation-filters="sRGB">
<feFlood flood-opacity="0" result="BackgroundImageFix"/>
<feColorMatrix in="SourceAlpha" type="matrix" values="0 0 0 0 0 0 0 0 0 0 0 0 0 0 0 0 0 0 127 0"/>
<feOffset dy="4"/>
<feGaussianBlur stdDeviation="5"/>
<feColorMatrix type="matrix" values="0 0 0 0 0 0 0 0 0 0 0 0 0 0 0 0 0 0 0.25 0"/>
<feBlend mode="normal" in2="BackgroundImageFix" result="effect1_dropShadow"/>
<feBlend mode="normal" in="SourceGraphic" in2="effect1_dropShadow" result="shape"/>
</filter>
</defs>
</svg>
